<?xml version="1.0" standalone="no"?>
<svg version="1.0" xmlns="http://www.w3.org/2000/svg"
 viewBox="0 0 586.830806 206.710570"
 preserveAspectRatio="xMidYMid meet"
 role="img" aria-label="Hertfordshire Hedging">
<g transform="translate(-27.169194,211.000000) scale(0.100000,-0.100000)"
fill="currentColor" stroke="none">
<path d="M2212 2097 c-37 -21 -49 -48 -57 -124 -6 -62 -10 -73 -26 -73 -17 0
-19 -8 -19 -60 0 -53 2 -60 20 -60 19 0 20 -7 20 -200 l0 -200 55 0 55 0 0
-101 0 -101 -34 22 c-199 122 -429 -135 -327 -367 59 -133 227 -197 328 -125
31 22 31 22 36 1 5 -18 12 -20 74 -17 l68 3 0 355 0 355 -52 3 -53 3 0 185 0
184 35 0 35 0 0 60 0 60 -36 0 -35 0 3 43 c3 42 3 42 41 40 l37 -2 0 55 c0 49
-2 55 -26 64 -35 14 -114 12 -142 -3z m2 -1028 c109 -86 50 -269 -84 -256
-106 11 -154 159 -76 241 41 44 114 51 160 15z"/>
<path d="M5055 2085 c-68 -67 15 -188 98 -143 82 43 53 168 -38 168 -25 0 -44
-8 -60 -25z"/>
<path d="M3770 1980 l0 -121 -47 28 c-123 72 -293 -2 -333 -145 -66 -240 144
-459 335 -348 43 26 45 26 45 6 0 -18 6 -20 70 -20 l70 0 0 360 0 360 -70 0
-70 0 0 -120z m-44 -233 c41 -38 55 -99 35 -159 -47 -142 -241 -104 -241 47 0
129 117 193 206 112z"/>
<path d="M4475 2088 c-3 -7 -4 -168 -3 -358 l3 -345 70 0 70 0 5 173 5 174 28
24 c36 31 87 32 113 3 17 -19 19 -41 22 -200 l3 -179 70 0 70 0 -3 213 -3 214
-29 37 c-57 75 -145 92 -237 46 l-38 -20 -3 112 -3 113 -68 3 c-48 2 -69 -1
-72 -10z"/>
<path d="M1880 1995 l0 -95 -30 0 -30 0 0 -60 0 -60 30 0 30 0 0 -200 0 -200
70 0 70 0 0 200 0 200 40 0 40 0 0 59 0 60 -37 3 -38 3 -3 93 -3 92 -69 0 -70
0 0 -95z"/>
<path d="M275 2067 c-3 -6 -4 -163 -3 -347 l3 -335 73 -3 72 -3 0 151 0 150
105 0 105 0 0 -495 0 -496 73 3 72 3 2 135 c1 74 2 141 2 148 1 9 28 12 101
12 l100 0 0 -150 0 -150 75 0 75 0 0 338 0 338 61 2 c75 3 115 19 168 67 52
47 52 49 -11 81 l-53 27 -35 -20 c-76 -43 -149 -36 -194 18 -49 58 -47 59 175
59 l202 0 -7 56 c-19 161 -120 257 -271 258 -242 1 -360 -299 -185 -473 39
-39 44 -47 26 -47 -20 1 -21 -4 -24 -126 l-3 -128 -102 0 -102 0 0 467 0 468
-72 3 -73 3 0 -131 0 -130 -105 0 -105 0 0 130 0 130 -70 0 c-48 0 -72 -4 -75
-13z m985 -312 c45 -43 40 -45 -90 -45 -66 0 -120 3 -120 6 0 71 148 98 210
39z"/>
<path d="M1676 1895 c-27 -18 -36 -21 -36 -10 0 12 -14 15 -65 15 l-65 0 0
-260 0 -260 70 0 70 0 0 128 c0 215 22 290 81 277 25 -6 28 -3 47 55 l21 61
-25 9 c-39 15 -58 12 -98 -15z"/>
<path d="M2612 1902 c-197 -70 -244 -333 -86 -472 146 -128 374 -55 430 137
60 207 -144 406 -344 335z m153 -142 c71 -44 80 -159 18 -222 -77 -76 -198
-27 -210 85 -13 116 98 195 192 137z"/>
<path d="M3230 1909 c-13 -5 -33 -17 -42 -26 -17 -15 -18 -15 -18 0 0 14 -11
17 -60 17 l-60 0 0 -260 0 -260 60 0 60 0 -6 -29 c-20 -97 116 -148 161 -60
38 72 -29 156 -101 129 -14 -6 -27 -10 -30 -10 -2 0 -4 69 -4 153 0 184 12
222 69 222 32 0 35 3 53 54 10 30 15 58 10 63 -14 14 -66 18 -92 7z"/>
<path d="M4127 1906 c-144 -53 -143 -211 2 -296 31 -18 66 -40 79 -47 15 -9
22 -22 20 -36 -5 -35 -66 -36 -107 -2 -37 32 -37 32 -86 -23 l-38 -43 28 -29
c106 -110 315 -70 341 65 16 88 -25 151 -141 214 -38 20 -70 44 -70 52 0 23
54 23 86 0 38 -28 41 -27 82 22 41 51 38 64 -27 102 -54 31 -119 40 -169 21z"/>
<path d="M5460 1909 c-13 -5 -33 -17 -42 -26 -17 -15 -18 -15 -18 0 0 14 -11
17 -60 17 l-60 0 0 -260 0 -260 70 0 70 0 0 168 c0 200 11 237 69 237 32 0 35
3 53 54 10 30 15 58 10 63 -14 14 -66 18 -92 7z"/>
<path d="M5799 1907 c-201 -57 -262 -336 -103 -476 97 -85 280 -84 372 2 48
45 47 54 -10 83 l-53 27 -35 -20 c-73 -42 -150 -36 -196 14 -55 59 -45 63 171
63 l195 0 0 48 c0 180 -168 307 -341 259z m148 -137 c17 -10 37 -28 43 -39 11
-21 9 -21 -110 -21 -109 0 -121 2 -118 17 10 54 124 80 185 43z"/>
<path d="M5046 1892 c-6 -11 -7 -479 0 -497 5 -11 23 -15 75 -15 l69 0 0 260
0 260 -69 0 c-39 0 -72 -3 -75 -8z"/>
<path d="M1430 1215 c-174 -54 -237 -300 -113 -444 99 -117 296 -125 403 -16
l43 43 -59 30 -59 29 -27 -20 c-76 -57 -228 -12 -228 68 0 3 91 5 201 5 l202
0 -6 64 c-18 189 -178 296 -357 241z m180 -144 c46 -38 43 -40 -88 -42 -132
-2 -133 -1 -87 40 50 44 124 45 175 2z"/>
<path d="M2676 1216 c-211 -78 -207 -441 6 -512 59 -19 146 -14 183 10 36 23
47 8 29 -39 -18 -45 -156 -63 -204 -25 -19 15 -41 20 -97 20 -87 0 -93 -12
-40 -81 88 -116 306 -133 417 -33 69 63 75 92 75 394 l0 265 -67 3 c-63 3 -68
1 -68 -18 0 -25 0 -25 -51 2 -52 27 -131 33 -183 14z m175 -142 c59 -30 78
-133 36 -195 -71 -105 -227 -51 -227 78 0 107 97 166 191 117z"/>
<path d="M3634 1205 c-59 -30 -54 -29 -54 -5 0 18 -7 20 -70 20 l-70 0 0 -270
0 -270 70 0 70 0 0 149 c0 203 23 261 102 261 65 0 72 -23 76 -232 l4 -178 69
0 69 0 0 188 c-1 257 -12 294 -100 340 -57 29 -105 28 -166 -3z"/>
<path d="M4167 1216 c-167 -62 -220 -310 -95 -451 69 -79 185 -104 277 -58
l43 22 -6 -32 c-11 -57 -37 -72 -120 -72 -56 0 -79 4 -93 18 -19 16 -173 27
-173 12 0 -3 9 -23 20 -44 87 -171 393 -176 483 -8 21 40 22 54 25 330 l3 287
-66 0 c-58 0 -68 -3 -72 -20 -6 -24 -4 -24 -47 1 -45 26 -129 34 -179 15z
m188 -156 c84 -79 34 -240 -74 -240 -103 0 -164 93 -125 190 32 80 139 107
199 50z"/>
<path d="M3180 950 l0 -270 70 0 70 0 0 270 0 270 -70 0 -70 0 0 -270z"/>
<path d="M1054 396 c-11 -29 0 -51 26 -51 21 0 25 5 25 30 0 34 -40 50 -51 21z"/>
<path d="M5226 397 c-23 -17 -6 -57 25 -57 24 0 36 27 22 48 -13 22 -26 24
-47 9z"/>
<path d="M310 373 c-29 -37 -20 -67 39 -128 47 -49 56 -75 23 -75 -8 0 -23 7
-33 16 -16 14 -20 14 -39 1 l-21 -15 24 -28 c34 -39 90 -39 123 0 37 42 31 70
-26 130 -27 29 -50 58 -50 64 0 17 20 15 40 -3 15 -14 19 -13 36 6 19 21 19
21 -5 40 -35 28 -85 25 -111 -8z"/>
<path d="M1830 365 c0 -19 -4 -35 -10 -35 -5 0 -10 -11 -10 -25 0 -14 5 -25
10 -25 6 0 10 -33 10 -80 0 -79 0 -80 25 -80 25 0 25 1 25 80 0 64 3 80 15 80
9 0 15 9 15 25 0 16 -6 25 -15 25 -10 0 -15 11 -15 35 0 31 -3 35 -25 35 -22
0 -25 -4 -25 -35z"/>
<path d="M3530 366 c0 -20 -4 -36 -10 -36 -5 0 -10 -11 -10 -25 0 -14 5 -25
10 -25 6 0 10 -33 10 -80 0 -79 0 -80 25 -80 24 0 25 2 25 75 0 58 4 77 15 81
20 8 20 54 -1 54 -12 0 -15 8 -12 33 3 28 0 32 -24 35 -26 3 -28 1 -28 -32z"/>
<path d="M4300 260 l0 -140 25 0 c24 0 25 2 25 63 0 69 15 101 46 95 16 -3 19
-13 22 -81 3 -74 4 -77 27 -77 24 0 25 3 26 68 1 37 0 76 -1 87 -5 47 -55 69
-101 45 -17 -10 -19 -7 -19 35 0 41 -2 45 -25 45 l-25 0 0 -140z"/>
<path d="M4890 355 c0 -42 -2 -45 -19 -35 -92 49 -177 -88 -105 -169 16 -18
38 -32 49 -32 11 1 44 1 73 1 l52 1 0 140 0 139 -25 0 c-23 0 -25 -4 -25 -45z
m-11 -89 c17 -20 10 -77 -10 -89 -49 -30 -102 40 -63 84 20 22 57 25 73 5z"/>
<path d="M2653 380 c-34 -14 -46 -45 -33 -86 10 -29 9 -38 -4 -53 -30 -33 -31
-77 -3 -105 30 -30 44 -32 92 -12 21 9 37 11 40 5 7 -10 65 -13 65 -2 0 3 -7
15 -16 25 -12 13 -14 21 -6 30 17 21 -12 55 -33 38 -13 -11 -18 -10 -30 6 -18
24 -18 26 0 50 42 56 -8 129 -72 104z m37 -65 c0 -8 -4 -15 -10 -15 -5 0 -10
7 -10 15 0 8 5 15 10 15 6 0 10 -7 10 -15z m-7 -146 c-28 -10 -45 8 -31 34 11
21 11 21 30 -3 19 -23 19 -24 1 -31z"/>
<path d="M510 302 c-78 -78 -3 -211 103 -181 46 13 63 32 41 50 -12 10 -22 10
-47 1 -25 -10 -35 -9 -54 3 -39 26 -26 35 52 35 l75 0 0 29 c0 80 -111 121
-170 63z m110 -37 c11 -13 6 -15 -34 -15 -43 0 -55 7 -39 23 12 13 60 7 73 -8z"/>
<path d="M720 225 l0 -105 25 0 c24 0 25 3 25 61 0 68 12 99 39 99 25 0 31
-19 31 -96 0 -62 1 -64 25 -64 23 0 25 3 25 49 0 70 17 113 44 109 19 -3 21
-10 24 -80 l3 -78 29 0 30 0 0 76 c0 72 -10 111 -34 126 -19 13 -69 9 -86 -7
-15 -14 -18 -14 -30 0 -15 18 -71 20 -88 3 -9 -9 -12 -9 -12 0 0 7 -11 12 -25
12 l-25 0 0 -105z"/>
<path d="M1057 324 c-4 -4 -7 -52 -7 -106 l0 -99 28 3 27 3 0 100 c0 93 -1
100 -20 103 -12 2 -24 0 -28 -4z"/>
<path d="M1250 225 l0 -105 25 0 c24 0 25 2 25 69 0 127 63 129 68 2 3 -68 4
-71 27 -71 24 0 25 3 25 63 0 69 15 101 46 95 16 -3 19 -13 22 -81 3 -73 4
-77 26 -77 28 0 37 36 29 121 -7 81 -54 114 -109 75 -17 -12 -22 -12 -39 0
-23 17 -67 18 -83 2 -9 -9 -12 -9 -12 0 0 7 -11 12 -25 12 l-25 0 0 -105z"/>
<path d="M1609 301 c-79 -79 22 -241 107 -170 10 8 14 8 14 0 0 -6 11 -11 25
-11 l25 0 0 105 0 105 -25 0 c-14 0 -25 -5 -25 -10 0 -7 -6 -7 -19 0 -35 18
-71 11 -102 -19z m103 -38 c20 -18 23 -45 8 -74 -14 -26 -66 -26 -80 0 -32 61
23 118 72 74z"/>
<path d="M1937 324 c-12 -13 -8 -123 7 -158 31 -74 135 -65 156 14 20 73 10
145 -20 145 -24 0 -25 -3 -30 -75 -5 -72 -6 -75 -30 -75 -24 0 -25 3 -30 75
-4 66 -7 75 -25 78 -12 2 -24 0 -28 -4z"/>
<path d="M2140 224 l0 -104 25 0 c24 0 25 2 25 68 0 71 5 85 33 95 41 15 19
45 -33 45 l-50 0 0 -104z"/>
<path d="M2295 307 c-35 -30 -46 -104 -21 -143 35 -52 129 -63 165 -20 19 22
-13 42 -45 27 -20 -9 -32 -8 -52 1 -52 26 -38 38 42 38 l76 0 0 31 c0 75 -106
118 -165 66z m105 -42 c11 -13 6 -15 -34 -15 -43 0 -55 7 -39 23 12 13 60 7
73 -8z"/>
<path d="M2950 225 l0 -105 25 0 c24 0 25 2 25 68 0 70 10 92 41 92 23 0 29
-20 29 -96 0 -62 1 -64 25 -64 24 0 25 3 25 54 0 75 14 108 43 104 20 -3 22
-9 25 -81 l3 -78 27 3 c27 3 27 3 27 85 -1 111 -46 156 -110 109 -16 -11 -22
-11 -46 3 -23 13 -34 14 -58 4 -18 -6 -33 -7 -37 -2 -3 5 -14 9 -25 9 -18 0
-19 -8 -19 -105z"/>
<path d="M3309 301 c-39 -40 -41 -105 -3 -150 24 -29 28 -30 100 -29 l74 1 0
103 0 104 -25 0 c-14 0 -25 -5 -25 -10 0 -7 -6 -7 -19 0 -35 18 -71 11 -102
-19z m103 -38 c36 -32 15 -93 -32 -93 -46 0 -67 55 -33 92 20 22 41 23 65 1z"/>
<path d="M3637 324 c-4 -4 -7 -35 -7 -68 0 -111 50 -163 126 -131 40 16 57 64
52 145 -3 51 -5 55 -28 55 -24 0 -25 -3 -30 -75 -5 -72 -6 -75 -30 -75 -24 0
-25 3 -30 75 -4 66 -7 75 -25 78 -12 2 -24 0 -28 -4z"/>
<path d="M3840 224 l0 -104 25 0 c24 0 25 3 25 58 0 70 8 102 26 102 15 0 38
37 27 43 -5 2 -29 5 -55 5 l-48 0 0 -104z"/>
<path d="M3989 299 c-87 -93 30 -235 136 -165 43 28 15 57 -37 37 -27 -10 -68
4 -76 27 -3 9 16 12 72 12 l76 0 0 31 c0 82 -113 120 -171 58z m111 -34 c11
-13 6 -15 -34 -15 -43 0 -55 7 -39 23 12 13 60 7 73 -8z"/>
<path d="M4564 320 c-59 -24 -73 -122 -25 -171 37 -36 105 -41 142 -9 29 24
10 44 -31 34 -35 -9 -59 -7 -76 7 -27 22 -13 29 61 29 l75 0 0 31 c0 64 -78
107 -146 79z m86 -55 c11 -13 6 -15 -34 -15 -43 0 -55 7 -39 23 12 13 60 7 73
-8z"/>
<path d="M5009 301 c-75 -76 9 -220 100 -172 22 12 27 5 12 -17 -9 -16 -36
-17 -98 -7 -50 9 -54 -1 -17 -36 39 -36 117 -34 150 4 22 26 24 36 24 143 l0
114 -25 0 c-14 0 -25 -5 -25 -10 0 -7 -6 -7 -19 0 -35 18 -71 11 -102 -19z
m105 -37 c32 -32 10 -94 -34 -94 -20 0 -50 35 -50 59 0 41 55 64 84 35z"/>
<path d="M5220 225 l0 -105 25 0 25 0 0 105 0 105 -25 0 -25 0 0 -105z"/>
<path d="M5315 322 c-3 -3 -5 -50 -5 -104 l0 -99 28 3 c26 3 27 6 32 72 9 118
62 121 65 4 3 -82 1 -78 30 -78 25 0 25 1 25 79 0 110 -16 130 -105 129 -36
-1 -67 -4 -70 -6z"/>
<path d="M5553 306 c-79 -68 7 -224 98 -176 15 9 19 7 19 -5 0 -22 -46 -38
-71 -24 -11 5 -34 9 -51 7 l-32 -3 26 -29 c21 -25 32 -30 76 -30 94 -2 113 51
103 272 -1 15 -33 16 -48 1 -8 -8 -13 -8 -17 0 -13 20 -73 12 -103 -13z m105
-38 c7 -7 12 -27 12 -45 0 -58 -70 -70 -91 -16 -19 50 43 97 79 61z"/>
</g>
</svg>
